<svg width="49" height="40" viewBox="0 0 49 40" fill="none" xmlns="http://www.w3.org/2000/svg">
<path d="M22.412 2C22.412 0.895431 23.3075 0 24.412 0H44.5427C46.7518 0 48.5427 1.79086 48.5427 4V36C48.5427 38.2091 46.7518 40 44.5427 40H22.412V2Z" fill="#EE6A43"/>
<path fill-rule="evenodd" clip-rule="evenodd" d="M6.62865 40L0 0H1.95516L4.40513 14.7841L6.85511 0H9.17706L11.6511 14.9294L14.1252 0H16.0803L9.45166 40H6.62865ZM7.973 5.50243L10.5932 21.3135L9.4366 28.2927H6.64372L5.42 20.9083L7.973 5.50243ZM7.07485 30.8943L8.04016 36.7194L9.00547 30.8943H7.07485Z" fill="#EE6A43"/>
<path fill-rule="evenodd" clip-rule="evenodd" d="M21.7471 40L19.3392 26.8238L16.9313 40H14.2714V0H16.3439V7.80488H24.2198V10.4065H16.3439V30.9657L18.1399 21.1382H20.6335L24.0805 40H21.7471Z" fill="#EE6A43"/>
<rect x="33.1" y="5.85364" width="9.10569" height="9.10569" fill="#EE6A43"/>
<path d="M31.9598 24.7236C31.9598 22.7254 33.5797 21.1055 35.5779 21.1055V21.1055C37.5761 21.1055 39.196 22.7254 39.196 24.7236V40H31.9598V24.7236Z" fill="white"/>
<circle cx="37.6527" cy="10.4065" r="1.62602" fill="white"/>
<circle cx="35.4961" cy="10.3705" r="7.15447" fill="white"/>
<circle cx="35.5664" cy="10.4408" r="2.60163" fill="#EE6A43"/>
<path d="M43.2796 12.5634C43.359 12.6601 43.3311 12.8051 43.2215 12.8655L41.183 13.9887C41.0346 14.0704 40.8581 13.9422 40.8901 13.7758L41.4513 10.8541C41.4833 10.6877 41.6947 10.634 41.8023 10.7649L43.2796 12.5634Z" fill="white"/>
</svg>
